<?xml version="1.0" standalone="no"?>
<!DOCTYPE svg PUBLIC "-//W3C//DTD SVG 20010904//EN"
 "http://www.w3.org/TR/2001/REC-SVG-20010904/DTD/svg10.dtd">
<svg version="1.0" xmlns="http://www.w3.org/2000/svg"
 width="512.000000pt" height="512.000000pt" viewBox="0 0 512.000000 512.000000"
 preserveAspectRatio="xMidYMid meet">
<metadata>
Created by potrace 1.11, written by Peter Selinger 2001-2013
</metadata>
<g transform="translate(0.000000,512.000000) scale(0.100000,-0.100000)"
fill="#000000" stroke="none">
<path d="M3154 4711 c4 -7 0 -10 -11 -9 -47 4 -73 -3 -73 -18 0 -13 -3 -14
-14 -5 -11 10 -17 8 -25 -6 -6 -10 -11 -14 -11 -9 0 5 -7 3 -15 -4 -8 -7 -15
-9 -15 -4 0 5 -7 -2 -16 -14 -8 -12 -19 -20 -23 -18 -4 3 -21 -11 -37 -31 -16
-21 -37 -44 -46 -52 -10 -9 -18 -23 -18 -33 0 -9 -5 -20 -10 -23 -6 -4 -8 -11
-5 -16 4 -5 1 -9 -5 -9 -6 0 -8 -4 -5 -10 3 -5 -1 -22 -9 -38 -9 -18 -11 -33
-5 -44 6 -12 4 -17 -11 -21 -11 -3 -20 -1 -20 5 0 5 -4 6 -10 3 -5 -3 -10 -1
-10 4 0 6 -7 11 -15 11 -8 0 -15 4 -15 9 0 6 -9 8 -20 6 -11 -2 -20 2 -20 8 0
7 -8 13 -17 14 -10 1 -31 5 -48 8 -16 4 -48 8 -70 10 -22 2 -41 5 -42 6 -9 6
-31 4 -47 -4 -10 -5 -16 -5 -13 0 3 5 -3 9 -13 9 -10 0 -16 -4 -13 -9 3 -5 -1
-8 -8 -6 -32 4 -50 -1 -43 -13 5 -10 4 -10 -6 -1 -10 9 -16 8 -27 -3 -8 -8
-23 -14 -34 -14 -11 0 -18 -4 -15 -9 3 -5 -6 -12 -19 -15 -14 -4 -23 -11 -20
-16 3 -6 1 -10 -5 -10 -16 0 -56 -43 -64 -68 -4 -12 -12 -22 -17 -22 -6 0 -8
-4 -5 -9 4 -5 0 -12 -6 -14 -10 -4 -10 -6 -1 -6 9 -1 10 -8 3 -26 -7 -17 -6
-25 1 -25 8 0 8 -4 0 -14 -8 -10 -9 -16 -1 -21 5 -3 10 -17 10 -30 0 -13 5
-27 10 -30 6 -3 10 -11 10 -16 0 -6 -6 -7 -12 -3 -7 5 2 -10 20 -32 55 -66 57
-68 55 -71 -5 -8 11 -43 20 -43 6 0 7 -3 4 -7 -4 -3 2 -12 12 -20 12 -8 17
-20 14 -33 -3 -12 0 -20 8 -20 7 0 9 -3 6 -7 -4 -3 0 -14 9 -24 9 -10 14 -25
11 -33 -3 -8 -1 -16 4 -18 5 -2 11 -13 12 -25 0 -12 4 -20 8 -17 3 2 9 -14 13
-36 3 -22 12 -40 19 -40 8 0 7 -4 -3 -10 -13 -9 -13 -10 0 -10 12 0 12 -2 2
-9 -11 -7 -11 -9 0 -13 7 -3 15 -21 16 -39 1 -19 7 -35 12 -37 6 -2 6 -11 0
-23 -8 -14 -7 -19 1 -19 6 0 9 -9 6 -20 -3 -11 -2 -20 1 -20 4 0 8 -21 9 -48
2 -50 8 -86 18 -102 3 -6 -1 -13 -9 -16 -14 -5 -14 -8 0 -21 11 -12 12 -18 4
-23 -9 -6 -9 -9 1 -14 11 -5 11 -7 1 -12 -10 -5 -10 -9 -1 -20 9 -11 9 -14 0
-14 -8 0 -9 -5 -2 -18 7 -13 6 -23 -2 -31 -9 -9 -8 -14 3 -21 10 -7 11 -10 3
-10 -7 0 -13 -5 -13 -11 0 -5 6 -7 13 -4 6 4 3 -1 -7 -9 -11 -9 -15 -16 -9
-16 11 0 12 -17 2 -35 -3 -5 -5 -22 -4 -37 1 -16 -1 -28 -4 -28 -3 0 -7 -15
-8 -32 -4 -57 -5 -63 -15 -75 -5 -7 -7 -17 -3 -23 4 -6 2 -16 -3 -23 -6 -7
-12 -24 -14 -37 -2 -14 -10 -36 -17 -49 -11 -19 -11 -22 1 -15 7 4 4 -2 -6
-14 -12 -14 -14 -22 -7 -22 9 0 8 -5 -3 -15 -8 -9 -13 -22 -10 -30 4 -8 0 -17
-8 -20 -14 -6 -16 -11 -20 -54 -1 -11 -5 -19 -8 -19 -18 1 -21 -4 -10 -18 8
-8 9 -14 4 -12 -5 2 -9 0 -9 -4 0 -4 -9 -14 -20 -23 -11 -9 -14 -14 -7 -10 6
3 12 2 12 -3 0 -6 -7 -13 -16 -16 -8 -3 -12 -10 -9 -16 3 -5 2 -10 -3 -10 -6
0 -13 -7 -16 -16 -4 -10 -2 -13 7 -8 13 8 -21 -36 -38 -48 -5 -4 -6 -10 -3
-14 8 -7 -14 -34 -24 -28 -3 2 -5 -4 -4 -13 2 -10 -4 -25 -13 -33 -19 -18 -37
-46 -51 -77 -5 -13 -14 -23 -20 -23 -5 0 -9 -3 -9 -7 3 -20 -2 -34 -11 -28 -6
4 -10 -5 -10 -20 0 -18 -4 -24 -12 -20 -7 4 -5 0 6 -9 16 -13 21 -13 51 7 18
12 31 25 28 30 -2 4 -1 7 4 6 21 -4 44 2 39 9 -5 8 45 52 58 52 3 0 19 14 36
30 17 17 36 27 42 24 6 -4 8 -3 5 3 -4 6 3 19 16 29 21 19 21 19 8 -1 -8 -11
2 -3 22 18 20 20 40 37 44 37 4 0 19 12 33 28 14 15 21 21 16 12 -5 -8 7 2 26
22 20 20 39 34 42 31 3 -4 6 1 6 11 0 9 5 14 10 11 6 -3 13 1 16 9 3 9 10 14
15 11 4 -3 13 4 19 16 7 11 14 19 16 16 3 -3 15 5 28 17 34 32 87 76 92 76 14
0 62 45 57 53 -3 6 -2 7 4 4 5 -4 21 4 34 16 13 12 27 22 30 22 4 0 17 11 28
24 12 13 21 21 21 17 0 -3 25 14 56 39 31 26 60 42 67 39 7 -4 9 -4 5 1 -8 9
34 45 52 45 6 0 9 4 5 9 -3 5 3 12 14 16 10 3 31 18 47 33 15 15 24 20 20 12
-4 -8 1 -5 12 8 11 12 25 22 31 22 6 0 11 5 11 10 0 6 5 9 12 8 7 -2 12 4 13
12 0 9 8 14 18 12 9 -2 17 2 17 8 0 6 13 16 30 21 16 6 28 15 25 19 -5 8 10
17 29 18 5 0 12 4 15 9 3 5 29 24 56 43 28 19 53 38 57 44 4 6 10 8 13 4 4 -3
15 1 25 10 37 34 50 43 50 35 0 -4 5 0 11 10 5 9 17 17 24 17 8 0 15 5 15 11
0 5 4 8 9 4 6 -3 14 3 20 12 6 10 11 14 11 9 0 -6 7 -1 16 10 8 10 13 12 9 4
-4 -8 3 -4 14 9 12 13 21 20 21 17 0 -7 51 24 60 35 3 4 12 9 20 11 8 2 23 12
33 22 9 10 17 16 17 11 0 -4 6 -2 13 4 8 6 17 8 20 4 4 -3 7 -1 7 5 0 6 20 21
45 33 24 12 42 26 39 30 -3 5 1 6 9 3 8 -3 18 0 22 5 3 6 11 9 16 6 5 -4 9 1
9 10 0 9 4 14 9 11 5 -3 20 3 34 14 14 11 32 20 41 20 9 0 16 5 16 11 0 5 4 8
10 4 5 -3 18 2 28 12 10 10 25 19 33 20 8 2 32 12 53 23 22 10 43 17 48 14 5
-3 7 0 6 8 -2 8 4 12 15 10 9 -2 17 2 17 8 0 7 8 9 22 5 16 -6 20 -4 15 8 -4
11 -1 15 14 12 10 -2 19 0 19 5 0 5 7 7 15 4 8 -4 15 -1 15 6 0 6 4 9 9 6 5
-3 14 1 21 9 10 12 16 13 28 3 10 -8 13 -9 9 -2 -4 7 3 14 18 18 14 4 25 11
25 17 0 6 4 8 9 4 6 -3 15 4 21 15 6 11 15 18 21 15 5 -4 8 -3 7 2 -1 4 3 18
10 29 6 12 8 24 5 28 -3 3 -2 6 4 6 10 0 9 41 -2 78 -4 12 -11 22 -16 22 -5 0
-8 4 -6 8 3 13 -58 68 -93 82 -16 7 -30 15 -30 19 0 7 -6 8 -70 12 -19 1 -41
6 -47 12 -9 6 -13 6 -13 -2 0 -7 -5 -9 -11 -6 -18 12 -59 13 -59 1 0 -6 -5 -4
-10 4 -5 8 -10 10 -10 4 0 -6 -10 -10 -22 -9 -25 2 -33 31 -11 39 8 3 11 10 8
16 -3 5 -2 10 4 10 10 0 36 74 34 97 0 7 3 10 8 7 5 -3 10 12 10 33 3 75 -2
128 -11 131 -6 2 -8 8 -4 13 3 5 0 9 -6 9 -6 0 -9 4 -6 9 3 5 -3 20 -14 33
-11 14 -18 27 -17 29 1 2 0 3 -2 2 -2 -2 -10 6 -18 17 -8 11 -21 20 -29 20 -8
0 -12 5 -9 10 5 9 -1 12 -21 9 -4 0 -10 3 -13 8 -10 14 -55 30 -78 28 -13 -1
-23 3 -23 8 0 5 -7 7 -15 3 -8 -3 -15 0 -15 6 0 7 -4 7 -14 -1 -9 -7 -17 -8
-20 -2 -7 10 -25 9 -43 -2 -8 -5 -13 -3 -13 3 0 8 -6 8 -20 0 -13 -7 -20 -7
-20 -1 0 6 -7 8 -15 5 -8 -4 -13 -9 -11 -13 3 -4 -12 -7 -32 -6 -25 0 -36 -5
-34 -13 1 -8 -2 -10 -8 -7 -16 10 -62 -4 -55 -15 5 -9 -4 -11 -30 -10 -3 1
-12 -5 -20 -12 -35 -32 -45 -38 -60 -38 -13 0 -20 12 -12 24 1 2 -6 13 -16 23
-9 11 -14 23 -10 26 3 4 1 7 -5 7 -7 0 -12 5 -12 12 0 6 -22 32 -49 57 -73 68
-80 73 -106 75 -13 0 -21 4 -18 9 4 6 -20 11 -39 8 -5 0 -8 3 -8 7 0 4 -17 8
-37 7 -21 0 -42 2 -48 4 -16 8 -75 7 -75 -2 0 -4 -10 -3 -21 4 -15 8 -19 8
-15 0z"/>
<path d="M1595 3997 c-8 -4 -15 -5 -15 -1 0 3 -6 2 -12 -3 -7 -6 -21 -9 -30
-8 -10 2 -18 -1 -18 -6 0 -5 -7 -9 -15 -9 -8 0 -15 -5 -15 -11 0 -5 -4 -7 -10
-4 -5 3 -10 1 -10 -6 0 -7 -3 -9 -7 -6 -3 4 -16 -4 -28 -18 -13 -13 -26 -21
-29 -18 -3 4 -6 -2 -6 -12 0 -10 -3 -16 -6 -12 -8 7 -34 -17 -34 -32 0 -6 -4
-11 -9 -11 -5 0 -14 -13 -21 -30 -7 -16 -16 -30 -21 -30 -5 0 -6 -6 -3 -14 3
-8 0 -17 -5 -21 -6 -3 -9 -11 -6 -16 4 -5 1 -9 -5 -9 -6 0 -9 -4 -6 -9 3 -5
-2 -12 -11 -15 -10 -4 -14 -4 -11 0 4 3 -7 18 -24 33 -17 14 -38 33 -48 42 -9
8 -22 13 -28 11 -7 -2 -12 1 -12 8 0 6 -4 8 -10 5 -5 -3 -10 -2 -10 3 0 6 -7
13 -16 16 -10 4 -13 2 -8 -7 5 -8 3 -8 -9 2 -9 7 -31 14 -50 15 -18 1 -39 6
-45 10 -7 4 -16 4 -22 1 -5 -3 -10 0 -10 7 0 8 -3 9 -8 3 -9 -14 -55 -13 -64
0 -5 6 -8 6 -8 -2 0 -6 -11 -10 -24 -9 -18 2 -23 -1 -19 -12 5 -12 3 -13 -13
-4 -14 8 -26 6 -49 -6 -16 -9 -32 -19 -35 -22 -3 -3 -12 -6 -20 -8 -8 -2 -16
-8 -18 -13 -2 -5 -10 -9 -18 -9 -8 0 -17 -7 -20 -15 -3 -8 -14 -17 -25 -20
-11 -4 -17 -11 -14 -16 4 -5 -1 -9 -9 -9 -10 0 -13 -6 -9 -17 4 -10 2 -14 -4
-10 -7 4 -17 -6 -25 -23 -7 -16 -17 -30 -22 -30 -4 0 -6 -9 -3 -20 3 -11 1
-20 -5 -20 -6 0 -7 -7 -4 -16 3 -8 2 -12 -4 -9 -10 6 -12 -9 -15 -132 -1 -40
3 -73 7 -73 5 0 6 -9 3 -20 -4 -11 -2 -20 4 -20 6 0 8 -7 5 -15 -4 -8 -1 -15
6 -15 10 0 10 -4 0 -15 -7 -9 -16 -12 -19 -8 -7 9 -121 11 -121 2 0 -3 -7 -6
-15 -6 -8 0 -15 5 -15 11 0 6 -4 5 -9 -3 -5 -8 -16 -11 -26 -8 -9 4 -14 3 -10
-3 5 -9 -15 -15 -38 -11 -4 1 -10 -6 -13 -14 -3 -8 -10 -12 -16 -9 -5 3 -18
-2 -29 -12 -10 -9 -19 -14 -19 -10 0 4 -7 0 -16 -8 -8 -9 -20 -13 -26 -10 -7
4 -8 2 -4 -4 4 -7 1 -12 -9 -12 -9 0 -13 -4 -10 -10 3 -5 -1 -10 -10 -10 -9 0
-14 -4 -10 -9 3 -5 -3 -12 -12 -15 -18 -6 -83 -97 -83 -116 0 -5 -5 -10 -11
-10 -6 0 -8 -7 -5 -15 3 -9 0 -18 -7 -21 -7 -2 -12 -19 -11 -39 1 -21 -3 -35
-10 -35 -7 0 -6 -3 2 -9 8 -4 11 -19 8 -34 -3 -15 0 -27 6 -27 5 0 8 -6 5 -14
-3 -7 1 -25 8 -40 10 -19 11 -24 2 -19 -9 5 -9 3 0 -9 7 -8 9 -19 5 -23 -4 -5
-1 -5 6 -1 6 4 12 2 12 -3 0 -20 4 -26 41 -63 21 -21 34 -38 31 -38 -7 0 59
-44 68 -45 3 0 11 -4 18 -9 7 -4 16 -5 19 -2 3 3 14 -5 25 -17 11 -12 16 -15
12 -7 -5 12 -4 12 6 3 7 -6 19 -9 28 -6 10 4 13 2 8 -5 -4 -8 -2 -10 8 -6 8 3
24 1 35 -6 15 -8 21 -8 21 0 0 6 7 4 16 -4 18 -18 28 -21 18 -5 -4 8 1 9 17 4
13 -4 25 -11 27 -15 2 -4 11 -6 21 -3 10 3 22 0 25 -6 4 -6 12 -11 17 -11 6 0
7 5 4 10 -4 6 17 -3 45 -20 28 -17 48 -25 44 -19 -7 12 43 -18 64 -38 13 -13
28 -17 45 -14 5 1 6 -3 2 -9 -3 -5 -2 -10 3 -10 10 0 122 -105 122 -115 0 -3
5 -11 10 -18 41 -48 49 -61 44 -68 -3 -5 3 -9 13 -9 15 0 16 -2 3 -10 -8 -5
-10 -10 -4 -10 11 0 28 -35 25 -52 -1 -5 4 -8 10 -8 5 0 7 -4 4 -10 -3 -5 -3
-16 2 -22 8 -13 10 -22 17 -73 3 -16 5 -30 6 -30 1 0 3 -31 6 -68 2 -41 0 -65
-6 -62 -6 3 -7 -1 -4 -9 3 -9 11 -13 18 -9 6 4 4 -4 -6 -18 -10 -16 -13 -31
-8 -39 5 -8 5 -19 1 -25 -5 -5 -8 -22 -7 -37 1 -19 -3 -28 -14 -28 -9 0 -11
-3 -5 -8 16 -11 16 -29 0 -42 -11 -9 -12 -17 -4 -32 8 -15 8 -19 0 -14 -6 4
-11 0 -11 -11 0 -10 -7 -30 -14 -45 -11 -20 -12 -28 -3 -28 8 0 7 -3 -2 -9 -8
-5 -10 -14 -6 -21 5 -9 4 -11 -3 -6 -8 5 -12 -1 -12 -14 0 -13 -4 -19 -12 -14
-7 4 -8 3 -4 -5 4 -6 0 -23 -8 -36 -9 -14 -14 -25 -10 -25 4 0 1 -7 -6 -15 -7
-8 -9 -15 -6 -15 4 0 0 -7 -9 -16 -9 -9 -14 -23 -11 -30 3 -8 0 -13 -6 -11 -5
1 -12 -6 -13 -15 -2 -10 -12 -30 -23 -45 -11 -15 -23 -38 -26 -51 -4 -12 -12
-20 -17 -17 -5 4 -9 -2 -9 -12 0 -10 -12 -29 -25 -42 -14 -13 -24 -26 -22 -28
3 -2 -7 -17 -22 -32 -38 -42 -53 -61 -46 -61 3 0 -5 -11 -19 -24 -15 -13 -26
-28 -26 -34 0 -6 -9 -14 -20 -17 -11 -4 -18 -11 -14 -16 3 -5 -8 -23 -25 -39
-16 -17 -28 -30 -25 -30 2 0 -14 -18 -36 -40 -23 -23 -38 -46 -34 -52 5 -8 2
-9 -9 -5 -9 3 -16 3 -16 -1 3 -20 -2 -33 -11 -27 -5 3 -10 1 -10 -5 0 -6 -15
-25 -33 -42 -17 -17 -25 -27 -17 -22 13 7 13 5 1 -9 -7 -9 -18 -14 -24 -10 -6
4 -8 0 -4 -11 4 -9 3 -15 -2 -12 -9 6 -47 -44 -43 -56 1 -5 -2 -7 -6 -5 -8 2
-62 -51 -62 -60 0 -3 6 -11 14 -19 13 -12 17 -12 30 1 8 8 22 15 30 15 9 0 15
5 13 12 -1 7 3 12 8 13 14 1 171 158 167 168 -1 5 2 6 7 3 5 -3 22 10 38 29
17 19 33 32 36 28 4 -3 7 1 7 11 0 9 5 14 10 11 6 -3 10 2 10 11 0 10 3 15 6
11 7 -6 34 15 30 23 -2 3 5 13 16 23 10 9 18 14 18 11 0 -3 25 20 55 51 30 32
55 62 55 66 0 5 3 8 8 7 9 -4 98 85 94 95 -2 7 13 11 31 8 4 0 6 3 5 7 -2 5
12 23 30 39 17 17 32 37 32 44 0 7 3 10 6 6 7 -6 28 12 34 28 4 13 43 41 53
37 4 -1 6 1 6 5 -3 20 2 34 11 28 5 -3 17 7 27 22 10 15 29 39 43 52 14 13 24
27 22 32 -1 5 1 8 5 7 5 -2 18 7 31 19 12 13 20 23 17 23 -3 0 13 16 35 36 22
20 37 40 34 45 -3 5 1 9 8 9 7 1 22 12 33 26 11 15 31 38 45 53 14 15 44 50
68 77 23 27 57 64 75 83 18 19 32 37 32 40 0 3 3 5 8 3 4 -1 7 8 7 20 0 12 3
18 7 15 3 -4 18 10 32 31 33 49 47 63 56 54 4 -4 5 -2 3 5 -3 12 16 45 45 75
9 10 17 21 17 24 0 4 8 13 18 21 11 9 12 12 2 8 -8 -4 -4 3 10 14 14 11 21 21
16 21 -5 0 1 9 14 20 13 11 19 20 14 20 -5 0 -2 6 7 13 9 7 19 22 23 35 4 12
11 20 16 17 4 -3 11 2 14 11 4 10 2 13 -7 9 -6 -4 -1 3 12 14 13 12 20 21 16
21 -3 0 3 12 14 26 11 15 18 31 14 37 -3 5 -2 7 3 4 6 -3 16 3 23 15 10 16 10
19 -1 13 -7 -3 -4 1 6 9 11 9 16 16 10 16 -5 0 -4 4 1 8 6 4 24 34 40 67 17
33 33 62 38 63 4 2 7 8 7 13 0 6 11 34 24 62 20 43 34 80 41 107 1 3 8 19 15
35 7 17 12 38 11 49 -2 11 2 16 8 12 7 -5 8 -1 4 10 -4 12 -3 15 5 10 9 -5 9
-1 2 18 -6 17 -6 26 0 26 6 0 10 9 10 21 0 11 4 18 8 15 5 -3 6 8 4 25 -3 20
0 29 9 29 11 0 11 2 -1 10 -8 5 -10 10 -4 10 6 0 10 11 9 25 -2 14 1 27 5 30
5 3 7 14 5 25 -2 11 1 22 6 26 6 4 6 11 -2 20 -9 11 -8 14 2 14 11 0 11 2 -1
10 -9 5 -10 10 -3 10 7 0 10 11 7 29 -3 16 0 32 6 36 8 5 8 11 -1 21 -9 11 -8
14 2 14 9 0 10 3 4 8 -9 6 -12 37 -16 175 0 9 -6 17 -12 17 -8 0 -7 4 2 9 12
8 12 12 2 25 -11 13 -11 16 0 16 11 0 11 2 -1 10 -8 5 -11 10 -6 10 5 0 3 6
-3 14 -9 11 -9 15 1 19 11 4 10 6 0 6 -7 1 -10 6 -7 11 3 6 1 10 -6 10 -8 0
-8 4 1 15 10 12 10 15 0 15 -7 0 -10 6 -7 14 3 8 -1 20 -9 27 -12 10 -12 14
-2 20 10 7 10 9 -1 9 -8 0 -11 7 -8 20 3 11 1 18 -4 14 -8 -5 -13 10 -10 30 1
4 -3 14 -9 20 -5 7 -7 16 -3 19 3 4 1 7 -6 7 -7 0 -9 5 -6 10 3 6 -1 13 -10
16 -13 6 -14 8 -3 15 10 7 10 9 1 9 -7 0 -13 7 -13 15 0 8 -5 15 -11 15 -5 0
-7 5 -4 10 3 6 1 10 -4 10 -6 0 -10 3 -10 8 3 18 -2 33 -9 28 -5 -3 -17 9 -27
27 -10 17 -29 41 -41 52 -45 40 -64 55 -64 47 0 -4 -5 1 -11 11 -5 9 -19 17
-29 17 -11 0 -20 4 -20 10 0 5 -6 7 -14 4 -8 -3 -17 -1 -20 5 -4 6 -13 8 -21
4 -8 -3 -15 0 -15 6 0 13 -22 10 -32 -4 -5 -7 -8 -6 -8 1 0 12 -94 13 -115 1z"/>
<path d="M4637 3356 c-11 -11 -17 -12 -27 -3 -10 9 -11 9 -5 -2 6 -11 3 -13
-13 -9 -12 4 -25 2 -28 -3 -3 -5 -9 -7 -14 -4 -5 3 -11 1 -15 -5 -3 -5 -12
-10 -18 -10 -7 0 -6 4 3 10 9 6 10 10 3 10 -6 0 -15 -5 -18 -10 -4 -6 -10 -8
-15 -5 -13 8 -41 -6 -34 -17 4 -6 -4 -5 -16 2 -15 8 -20 8 -16 1 7 -11 -6 -15
-33 -12 -7 2 -11 -1 -8 -6 3 -5 -2 -9 -11 -10 -30 -2 -64 -12 -78 -23 -7 -7
-18 -9 -24 -5 -5 3 -10 2 -10 -3 0 -8 -36 -26 -70 -36 -3 -1 -24 -12 -47 -24
-24 -12 -43 -19 -43 -15 0 5 -5 0 -11 -10 -6 -9 -14 -15 -20 -12 -5 4 -9 1 -9
-5 0 -6 -4 -9 -9 -5 -5 3 -17 -2 -25 -11 -9 -8 -16 -12 -16 -8 0 4 -7 -1 -16
-12 -8 -10 -12 -12 -8 -4 7 12 5 13 -8 3 -8 -7 -19 -9 -23 -5 -5 4 -5 2 -1 -5
4 -8 -2 -15 -19 -19 -14 -3 -25 -10 -25 -16 0 -5 -4 -6 -10 -3 -5 3 -10 1 -10
-5 0 -6 -4 -8 -10 -5 -5 3 -10 1 -10 -4 0 -6 -7 -11 -15 -11 -7 0 -19 -8 -24
-17 -6 -10 -11 -13 -11 -6 0 7 -12 1 -26 -12 -15 -14 -33 -25 -40 -25 -8 0
-14 -4 -14 -10 0 -5 -7 -10 -15 -10 -8 0 -15 -5 -15 -11 0 -5 -4 -8 -9 -5 -5
3 -12 -1 -15 -10 -3 -8 -10 -12 -16 -9 -5 3 -10 1 -10 -6 0 -7 -3 -9 -6 -6 -4
4 -15 -3 -25 -15 -11 -11 -19 -17 -19 -13 0 5 -7 0 -16 -11 -8 -10 -12 -13 -9
-6 6 11 3 11 -13 1 -12 -7 -18 -17 -16 -21 3 -4 -4 -8 -16 -8 -14 0 -19 -4
-14 -12 5 -8 2 -9 -10 -5 -9 4 -15 3 -12 -1 3 -5 -10 -16 -29 -25 -19 -9 -35
-22 -35 -27 0 -6 -5 -8 -10 -5 -6 3 -13 -1 -16 -9 -3 -9 -10 -16 -15 -16 -16
0 -78 -48 -71 -55 4 -5 2 -5 -5 -1 -6 3 -23 -5 -36 -18 -14 -14 -27 -23 -29
-20 -3 2 -17 -7 -32 -21 -15 -14 -32 -25 -37 -25 -6 0 -7 -4 -4 -10 3 -6 -1
-7 -9 -4 -9 4 -18 -1 -22 -10 -3 -9 -12 -16 -20 -16 -8 0 -14 -5 -14 -11 0 -5
-4 -7 -10 -4 -5 3 -10 -1 -10 -10 0 -9 -5 -13 -10 -10 -6 3 -13 -1 -16 -9 -3
-9 -10 -13 -15 -10 -5 3 -12 -2 -15 -10 -3 -9 -10 -13 -15 -10 -5 3 -12 -2
-15 -10 -3 -9 -12 -16 -20 -16 -8 0 -14 -4 -14 -10 0 -5 -7 -10 -16 -10 -9 0
-12 -5 -8 -12 5 -8 2 -9 -9 -5 -10 3 -17 2 -17 -3 0 -5 -21 -24 -47 -41 -27
-18 -53 -40 -60 -48 -7 -9 -13 -13 -13 -9 0 7 -25 -11 -55 -39 -8 -7 -18 -13
-24 -13 -6 0 -11 -5 -11 -12 0 -6 -3 -8 -7 -5 -3 4 -12 -2 -20 -13 -8 -11 -18
-20 -23 -20 -9 0 -43 -26 -76 -58 -8 -7 -14 -11 -14 -8 0 3 -12 -6 -26 -19
-15 -14 -31 -22 -37 -18 -5 3 -7 1 -4 -4 4 -6 -1 -17 -10 -24 -14 -12 -16 -12
-8 1 8 14 1 9 -61 -50 -15 -14 -23 -18 -20 -10 7 13 6 13 -6 0 -27 -30 -81
-75 -73 -61 5 9 4 12 -3 7 -7 -4 -12 -14 -12 -22 0 -8 -4 -12 -10 -9 -5 3 -10
1 -10 -6 0 -7 -3 -10 -6 -6 -9 8 -33 -16 -26 -27 3 -5 1 -6 -5 -3 -5 4 -19 -3
-31 -13 -12 -11 -24 -20 -27 -20 -3 0 -14 -9 -26 -19 -11 -11 -35 -32 -51 -48
-17 -15 -28 -21 -23 -13 4 8 -5 0 -22 -17 -16 -18 -33 -30 -36 -27 -4 4 -9 -1
-13 -10 -3 -9 -13 -16 -21 -16 -8 0 -12 -4 -9 -8 2 -4 -4 -14 -16 -21 -16 -10
-19 -10 -13 1 5 7 -2 3 -14 -9 -11 -12 -21 -27 -21 -33 0 -6 -4 -9 -9 -6 -5 3
-20 -5 -32 -19 -13 -13 -30 -25 -36 -25 -7 0 -13 -4 -13 -10 0 -5 -12 -16 -27
-24 -16 -8 -28 -18 -28 -23 0 -4 -4 -7 -8 -5 -4 1 -10 -5 -13 -13 -4 -8 -12
-15 -20 -15 -8 0 -14 -7 -14 -15 0 -8 -4 -14 -9 -12 -5 1 -17 -7 -26 -18 -9
-11 -13 -13 -9 -5 4 8 -6 2 -22 -15 -16 -16 -28 -33 -26 -37 2 -5 -1 -8 -6 -8
-17 0 -8 -26 10 -27 10 -1 16 2 13 8 -6 8 8 13 28 10 4 0 7 4 7 10 0 5 4 7 10
4 5 -3 10 -1 10 6 0 7 3 10 6 6 4 -3 12 -1 20 6 30 27 44 37 49 37 22 -1 25 1
19 12 -5 8 -2 9 9 5 11 -4 17 -1 17 9 0 8 4 13 9 9 5 -3 17 3 27 12 10 10 20
18 23 18 3 0 5 4 3 8 -1 5 2 6 8 2 5 -3 26 6 45 21 19 14 35 23 35 18 0 -4 7
1 16 12 8 10 12 12 8 4 -7 -13 -6 -13 12 0 10 8 22 20 26 25 4 6 8 6 8 2 0 -5
7 -1 16 7 8 9 19 14 24 11 5 -3 10 -2 12 3 5 11 108 64 108 55 0 -5 4 -3 8 3
8 12 84 49 95 46 4 -1 7 3 7 9 0 6 7 9 15 5 8 -3 15 -1 15 5 0 6 5 7 10 4 6
-3 10 -1 10 4 0 6 9 11 21 11 11 0 17 4 14 10 -4 6 1 7 10 3 10 -3 20 -1 24 6
4 7 18 13 29 14 12 1 22 5 22 9 0 4 7 4 17 1 9 -4 14 -2 10 3 -3 5 3 11 14 12
43 4 49 6 49 15 0 5 6 7 14 4 8 -3 17 1 20 10 5 12 9 13 21 3 9 -8 15 -8 15
-2 0 10 47 25 85 27 11 0 26 4 33 8 6 5 17 5 24 1 8 -5 9 -2 4 11 -5 14 -3 15
6 8 7 -6 22 -7 33 -3 11 4 26 5 33 3 6 -3 12 0 12 7 0 9 4 9 17 -1 10 -9 14
-9 10 -2 -6 9 2 11 28 9 19 -1 35 1 35 4 0 4 12 6 28 5 15 -1 30 3 34 9 5 7 8
7 8 -1 0 -7 5 -13 11 -13 5 0 7 5 3 11 -4 8 -1 8 13 1 11 -6 25 -7 33 -2 9 6
17 5 22 -3 6 -9 8 -8 8 3 0 13 1 13 10 0 6 -10 10 -11 10 -2 0 6 5 12 11 12 5
0 8 -3 6 -7 -3 -5 8 -8 24 -9 16 -1 26 3 22 8 -3 6 4 5 16 -1 11 -7 21 -9 21
-5 0 3 7 1 15 -6 10 -8 15 -9 15 -1 0 7 8 8 27 0 14 -5 32 -8 40 -5 7 3 13 1
13 -5 0 -6 7 -9 15 -5 8 3 15 1 15 -5 0 -6 7 -9 15 -5 8 3 15 0 15 -7 0 -9 3
-8 9 1 7 11 9 11 14 -2 4 -9 13 -13 22 -10 8 3 15 1 15 -6 0 -6 5 -8 10 -5 6
3 10 1 10 -5 0 -6 5 -8 10 -5 6 3 10 2 10 -4 0 -6 11 -13 25 -17 14 -3 25 -10
25 -16 0 -5 4 -7 9 -3 5 3 16 -2 24 -10 9 -8 20 -15 26 -15 6 0 11 -4 11 -10
0 -5 7 -10 15 -10 9 0 18 -7 21 -15 4 -8 10 -13 14 -10 4 3 11 -2 14 -11 3 -8
11 -12 17 -8 7 4 9 3 5 -4 -3 -6 4 -21 17 -34 28 -28 62 -80 59 -90 -1 -5 3
-8 9 -8 5 0 8 -4 4 -9 -3 -5 -1 -12 5 -16 6 -4 8 -11 5 -16 -4 -5 -1 -9 5 -9
6 0 9 -4 5 -9 -3 -5 0 -13 6 -17 8 -4 7 -9 -2 -15 -11 -7 -11 -9 -1 -9 7 0 10
-5 7 -10 -3 -6 -2 -10 3 -10 4 0 7 -36 6 -79 -2 -61 0 -80 11 -85 8 -3 17 -1
21 5 3 6 11 6 17 1 7 -4 21 -8 32 -8 11 1 23 -3 27 -9 5 -7 8 -6 8 1 0 6 20
10 50 8 27 -1 48 1 46 5 -3 4 10 6 27 6 18 -1 38 6 45 14 8 9 11 10 7 4 -3 -7
-1 -13 4 -13 6 0 11 4 11 8 0 8 6 10 49 14 11 1 17 6 15 10 -5 7 10 12 29 9 4
0 7 3 7 8 0 5 10 13 23 17 12 4 42 25 67 46 48 42 115 118 91 103 -9 -5 -7 2
5 18 10 15 23 27 27 27 5 0 5 5 2 10 -4 6 -2 16 3 23 5 7 8 22 7 34 -1 12 2
20 7 17 4 -3 8 7 9 23 1 55 8 114 15 125 4 6 3 8 -3 5 -6 -4 -10 7 -11 24 -1
27 2 31 23 27 18 -4 22 -1 17 10 -4 11 -2 13 9 6 21 -13 42 -14 56 -2 9 7 13
7 13 -1 0 -7 8 -8 24 -1 13 5 27 6 30 3 3 -4 6 -1 6 5 0 7 5 12 11 12 5 0 7
-6 3 -12 -5 -9 -2 -9 9 1 9 7 17 10 17 6 0 -4 6 -2 13 4 8 6 17 8 20 4 4 -3 7
-1 7 5 0 7 3 11 8 10 12 -3 56 13 72 27 8 8 22 15 30 17 8 2 23 11 34 20 10
10 24 14 30 11 6 -3 8 -3 4 1 -3 4 10 25 30 46 54 56 62 67 62 85 0 8 5 15 11
15 5 0 7 -5 3 -12 -4 -7 -3 -8 5 -4 7 5 9 16 5 28 -4 14 -2 18 5 14 7 -5 11 6
11 31 0 30 3 35 11 23 9 -12 10 -11 6 7 -3 13 -1 25 3 28 5 3 6 19 3 36 -3 24
-2 29 9 23 11 -6 11 -5 0 8 -9 12 -10 18 -2 23 8 5 8 10 0 20 -6 7 -10 17 -9
21 1 5 0 11 -1 14 -3 10 -11 45 -12 58 -1 6 -5 12 -10 12 -5 0 -6 5 -3 10 3 6
2 10 -3 10 -5 0 -17 18 -28 39 -10 22 -22 37 -25 35 -4 -2 -15 8 -25 21 -10
14 -24 25 -30 25 -7 0 -15 7 -18 16 -3 8 -10 13 -15 9 -6 -3 -14 3 -20 12 -6
10 -11 14 -11 9 0 -4 -12 -1 -26 9 -14 9 -31 14 -38 12 -18 -7 -46 17 -37 32
5 7 10 12 12 10 6 -4 86 48 94 61 3 6 12 7 18 4 7 -4 9 -4 5 1 -8 8 31 42 44
38 4 -2 5 4 2 11 -3 9 3 17 16 21 12 4 19 9 16 12 -3 3 4 14 15 24 11 9 20 21
20 26 -1 4 4 15 11 24 7 8 15 22 16 30 2 8 6 23 9 34 9 33 10 134 1 129 -4 -3
-8 3 -8 13 0 10 -7 28 -15 39 -8 12 -11 25 -7 29 4 5 2 5 -5 1 -6 -3 -14 1
-17 12 -3 10 -21 26 -38 37 -18 10 -39 26 -46 34 -11 13 -12 13 -6 1 7 -13 6
-13 -9 -1 -17 14 -108 38 -137 36 -8 0 -18 4 -22 10 -5 6 -8 6 -8 0 0 -12 -79
-14 -97 -2 -6 4 -18 1 -26 -7z"/>
</g>
</svg>
