<?xml version="1.0" encoding="UTF-8" standalone="no"?>
<!DOCTYPE svg PUBLIC "-//W3C//DTD SVG 1.1//EN"
 "http://www.w3.org/Graphics/SVG/1.1/DTD/svg11.dtd">
<!-- Generated by graphviz version 2.40.1 (20161225.0304)
 -->
<!-- Title: dependencies Pages: 1 -->
<svg width="984pt" height="284pt"
 viewBox="0.00 0.00 984.00 284.00" xmlns="http://www.w3.org/2000/svg" xmlns:xlink="http://www.w3.org/1999/xlink">
<g id="graph0" class="graph" transform="scale(1 1) rotate(0) translate(4 280)">
<title>dependencies</title>
<polygon fill="#ffffff" stroke="transparent" points="-4,4 -4,-280 980,-280 980,4 -4,4"/>
<text text-anchor="start" x="467.0091" y="-42.4" font-family="sans-serif" font-weight="bold" font-size="14.00" fill="#000000">Legend</text>
<polygon fill="#ffffb3" stroke="transparent" points="254,-10 254,-30 274,-30 274,-10 254,-10"/>
<text text-anchor="start" x="277.629" y="-15.4" font-family="sans-serif" font-size="14.00" fill="#000000"> &#160;Declarations</text>
<polygon fill="#8dd3c7" stroke="transparent" points="367,-10 367,-30 387,-30 387,-10 367,-10"/>
<text text-anchor="start" x="390.7251" y="-15.4" font-family="sans-serif" font-size="14.00" fill="#000000"> &#160;Module</text>
<polygon fill="#80b1d3" stroke="transparent" points="453,-10 453,-30 473,-30 473,-10 453,-10"/>
<text text-anchor="start" x="476.7812" y="-15.4" font-family="sans-serif" font-size="14.00" fill="#000000"> &#160;Bootstrap</text>
<polygon fill="#fdb462" stroke="transparent" points="550,-10 550,-30 570,-30 570,-10 550,-10"/>
<text text-anchor="start" x="573.6732" y="-15.4" font-family="sans-serif" font-size="14.00" fill="#000000"> &#160;Providers</text>
<polygon fill="#fb8072" stroke="transparent" points="646,-10 646,-30 666,-30 666,-10 646,-10"/>
<text text-anchor="start" x="669.7258" y="-15.4" font-family="sans-serif" font-size="14.00" fill="#000000"> &#160;Exports</text>
<g id="clust1" class="cluster">
<title>cluster_HfcComponentsModule</title>
<polygon fill="none" stroke="#000000" stroke-dasharray="1,5" points="8,-70 8,-268 968,-268 968,-70 8,-70"/>
</g>
<g id="clust3" class="cluster">
<title>cluster_HfcComponentsModule_imports</title>
<polygon fill="none" stroke="#000000" points="16,-78 16,-130 960,-130 960,-78 16,-78"/>
</g>
<g id="clust4" class="cluster">
<title>cluster_HfcComponentsModule_exports</title>
<polygon fill="none" stroke="#000000" points="408,-208 408,-260 578,-260 578,-208 408,-208"/>
</g>
<!-- CommonModule -->
<g id="node1" class="node">
<title>CommonModule</title>
<polygon fill="#8dd3c7" stroke="#000000" points="951.6681,-122 948.6681,-126 927.6681,-126 924.6681,-122 840.3319,-122 840.3319,-86 951.6681,-86 951.6681,-122"/>
<text text-anchor="middle" x="896" y="-99.8" font-family="Times,serif" font-size="14.00" fill="#000000">CommonModule</text>
</g>
<!-- HfcComponentsModule -->
<g id="node8" class="node">
<title>HfcComponentsModule</title>
<polygon fill="#8dd3c7" stroke="#000000" points="568.8089,-187 565.8089,-191 544.8089,-191 541.8089,-187 417.1911,-187 417.1911,-151 568.8089,-151 568.8089,-187"/>
<text text-anchor="middle" x="493" y="-164.8" font-family="Times,serif" font-size="14.00" fill="#000000">HfcComponentsModule</text>
</g>
<!-- CommonModule&#45;&gt;HfcComponentsModule -->
<g id="edge1" class="edge">
<title>CommonModule&#45;&gt;HfcComponentsModule</title>
<path fill="none" stroke="#000000" d="M896,-122.2921C896,-144.2057 896,-178 896,-178 896,-178 578.8012,-178 578.8012,-178"/>
<polygon fill="#000000" stroke="#000000" points="578.8013,-174.5001 568.8012,-178 578.8012,-181.5001 578.8013,-174.5001"/>
</g>
<!-- MdCardModule -->
<g id="node2" class="node">
<title>MdCardModule</title>
<polygon fill="#8dd3c7" stroke="#000000" points="822.2064,-122 819.2064,-126 798.2064,-126 795.2064,-122 715.7936,-122 715.7936,-86 822.2064,-86 822.2064,-122"/>
<text text-anchor="middle" x="769" y="-99.8" font-family="Times,serif" font-size="14.00" fill="#000000">MdCardModule</text>
</g>
<!-- MdCardModule&#45;&gt;HfcComponentsModule -->
<g id="edge2" class="edge">
<title>MdCardModule&#45;&gt;HfcComponentsModule</title>
<path fill="none" stroke="#000000" d="M769,-122.1061C769,-141.3391 769,-169 769,-169 769,-169 578.7833,-169 578.7833,-169"/>
<polygon fill="#000000" stroke="#000000" points="578.7833,-165.5001 568.7833,-169 578.7832,-172.5001 578.7833,-165.5001"/>
</g>
<!-- MdButtonModule -->
<g id="node3" class="node">
<title>MdButtonModule</title>
<polygon fill="#8dd3c7" stroke="#000000" points="697.6123,-122 694.6123,-126 673.6123,-126 670.6123,-122 580.3877,-122 580.3877,-86 697.6123,-86 697.6123,-122"/>
<text text-anchor="middle" x="639" y="-99.8" font-family="Times,serif" font-size="14.00" fill="#000000">MdButtonModule</text>
</g>
<!-- MdButtonModule&#45;&gt;HfcComponentsModule -->
<g id="edge3" class="edge">
<title>MdButtonModule&#45;&gt;HfcComponentsModule</title>
<path fill="none" stroke="#000000" d="M639,-122.027C639,-138.3976 639,-160 639,-160 639,-160 578.9934,-160 578.9934,-160"/>
<polygon fill="#000000" stroke="#000000" points="578.9934,-156.5001 568.9934,-160 578.9934,-163.5001 578.9934,-156.5001"/>
</g>
<!-- MdExpansionModule -->
<g id="node4" class="node">
<title>MdExpansionModule</title>
<polygon fill="#8dd3c7" stroke="#000000" points="562.0968,-122 559.0968,-126 538.0968,-126 535.0968,-122 423.9032,-122 423.9032,-86 562.0968,-86 562.0968,-122"/>
<text text-anchor="middle" x="493" y="-99.8" font-family="Times,serif" font-size="14.00" fill="#000000">MdExpansionModule</text>
</g>
<!-- MdExpansionModule&#45;&gt;HfcComponentsModule -->
<g id="edge4" class="edge">
<title>MdExpansionModule&#45;&gt;HfcComponentsModule</title>
<path fill="none" stroke="#000000" d="M493,-122.1061C493,-122.1061 493,-140.991 493,-140.991"/>
<polygon fill="#000000" stroke="#000000" points="489.5001,-140.9909 493,-150.991 496.5001,-140.991 489.5001,-140.9909"/>
</g>
<!-- MdInputModule -->
<g id="node5" class="node">
<title>MdInputModule</title>
<polygon fill="#8dd3c7" stroke="#000000" points="406.0465,-122 403.0465,-126 382.0465,-126 379.0465,-122 297.9535,-122 297.9535,-86 406.0465,-86 406.0465,-122"/>
<text text-anchor="middle" x="352" y="-99.8" font-family="Times,serif" font-size="14.00" fill="#000000">MdInputModule</text>
</g>
<!-- MdInputModule&#45;&gt;HfcComponentsModule -->
<g id="edge5" class="edge">
<title>MdInputModule&#45;&gt;HfcComponentsModule</title>
<path fill="none" stroke="#000000" d="M352,-122.027C352,-138.3976 352,-160 352,-160 352,-160 407.1345,-160 407.1345,-160"/>
<polygon fill="#000000" stroke="#000000" points="407.1345,-163.5001 417.1345,-160 407.1345,-156.5001 407.1345,-163.5001"/>
</g>
<!-- MdSelectModule -->
<g id="node6" class="node">
<title>MdSelectModule</title>
<polygon fill="#8dd3c7" stroke="#000000" points="279.7022,-122 276.7022,-126 255.7022,-126 252.7022,-122 166.2978,-122 166.2978,-86 279.7022,-86 279.7022,-122"/>
<text text-anchor="middle" x="223" y="-99.8" font-family="Times,serif" font-size="14.00" fill="#000000">MdSelectModule</text>
</g>
<!-- MdSelectModule&#45;&gt;HfcComponentsModule -->
<g id="edge6" class="edge">
<title>MdSelectModule&#45;&gt;HfcComponentsModule</title>
<path fill="none" stroke="#000000" d="M223,-122.1061C223,-141.3391 223,-169 223,-169 223,-169 407.0714,-169 407.0714,-169"/>
<polygon fill="#000000" stroke="#000000" points="407.0715,-172.5001 417.0714,-169 407.0714,-165.5001 407.0715,-172.5001"/>
</g>
<!-- FlexLayoutModule -->
<g id="node7" class="node">
<title>FlexLayoutModule</title>
<polygon fill="#8dd3c7" stroke="#000000" points="148.0954,-122 145.0954,-126 124.0954,-126 121.0954,-122 23.9046,-122 23.9046,-86 148.0954,-86 148.0954,-122"/>
<text text-anchor="middle" x="86" y="-99.8" font-family="Times,serif" font-size="14.00" fill="#000000">FlexLayoutModule</text>
</g>
<!-- FlexLayoutModule&#45;&gt;HfcComponentsModule -->
<g id="edge7" class="edge">
<title>FlexLayoutModule&#45;&gt;HfcComponentsModule</title>
<path fill="none" stroke="#000000" d="M86,-122.2921C86,-144.2057 86,-178 86,-178 86,-178 406.9239,-178 406.9239,-178"/>
<polygon fill="#000000" stroke="#000000" points="406.9239,-181.5001 416.9239,-178 406.9238,-174.5001 406.9239,-181.5001"/>
</g>
<!-- SearchPanelComponent  -->
<g id="node9" class="node">
<title>SearchPanelComponent </title>
<polygon fill="#fb8072" stroke="#000000" points="570.0218,-252 415.9782,-252 415.9782,-216 570.0218,-216 570.0218,-252"/>
<text text-anchor="middle" x="493" y="-229.8" font-family="Times,serif" font-size="14.00" fill="#000000">SearchPanelComponent </text>
</g>
<!-- HfcComponentsModule&#45;&gt;SearchPanelComponent  -->
<g id="edge8" class="edge">
<title>HfcComponentsModule&#45;&gt;SearchPanelComponent </title>
<path fill="none" stroke="#000000" stroke-dasharray="5,2" d="M493,-187.1061C493,-187.1061 493,-205.991 493,-205.991"/>
<polygon fill="#000000" stroke="#000000" points="489.5001,-205.9909 493,-215.991 496.5001,-205.991 489.5001,-205.9909"/>
</g>
</g>
</svg>
